<svg width="22" height="22" viewBox="0 0 22 22" fill="none" xmlns="http://www.w3.org/2000/svg">
<path d="M20.847 0.543735L21.4504 1.14059C22.2818 1.96404 22.156 3.42379 21.1671 4.40101L8.72436 16.7093L4.69301 18.168C4.18679 18.3521 3.69387 18.1134 3.59365 17.6369C3.55978 17.4641 3.57572 17.2853 3.63967 17.121L5.14299 13.0988L17.551 0.823951C18.5399 -0.153265 20.0156 -0.279717 20.847 0.543735ZM8.18132 1.76778C8.31562 1.76778 8.44861 1.79395 8.57268 1.84479C8.69676 1.89563 8.80949 1.97014 8.90446 2.06408C8.99942 2.15801 9.07475 2.26953 9.12614 2.39227C9.17754 2.515 9.20399 2.64655 9.20399 2.77939C9.20399 2.91224 9.17754 3.04379 9.12614 3.16652C9.07475 3.28926 8.99942 3.40077 8.90446 3.49471C8.80949 3.58865 8.69676 3.66316 8.57268 3.714C8.44861 3.76484 8.31562 3.79101 8.18132 3.79101H4.09066C3.54821 3.79101 3.02797 4.00417 2.64439 4.38359C2.26082 4.76302 2.04533 5.27764 2.04533 5.81423V17.9536C2.04533 18.4901 2.26082 19.0048 2.64439 19.3842C3.02797 19.7636 3.54821 19.9768 4.09066 19.9768H16.3626C16.9051 19.9768 17.4253 19.7636 17.8089 19.3842C18.1925 19.0048 18.408 18.4901 18.408 17.9536V13.9071C18.408 13.6388 18.5157 13.3815 18.7075 13.1918C18.8993 13.0021 19.1594 12.8955 19.4306 12.8955C19.7019 12.8955 19.962 13.0021 20.1538 13.1918C20.3456 13.3815 20.4533 13.6388 20.4533 13.9071V17.9536C20.4533 19.0267 20.0223 20.056 19.2552 20.8148C18.488 21.5737 17.4476 22 16.3626 22H4.09066C3.00575 22 1.96528 21.5737 1.19813 20.8148C0.430979 20.056 0 19.0267 0 17.9536V5.81423C0 4.74104 0.430979 3.71181 1.19813 2.95296C1.96528 2.1941 3.00575 1.76778 4.09066 1.76778H8.18132Z" fill="black"/>
</svg>
